<svg width="117" height="62" viewBox="0 0 117 62" fill="none" xmlns="http://www.w3.org/2000/svg">
<path d="M2.48104e-05 48.86V-1.56164e-05H18.55C23.31 -1.56164e-05 26.95 1.35332 29.47 4.05998C31.99 6.76665 33.25 10.4533 33.25 15.12C33.25 19.7867 31.99 23.4733 29.47 26.18C26.95 28.8867 23.31 30.24 18.55 30.24H9.17003V48.86H2.48104e-05ZM9.17003 22.75H16.66C19.1334 22.75 20.9067 22.26 21.98 21.28C23.0534 20.2533 23.59 18.6433 23.59 16.45V13.79C23.59 11.5966 23.0534 10.01 21.98 9.02998C20.9067 8.00332 19.1334 7.48998 16.66 7.48998H9.17003V22.75ZM41.8327 48.86V42H52.8227V6.85998H41.8327V-1.56164e-05H72.9127V6.85998H61.9227V42H72.9127V48.86H41.8327Z" fill="white"/>
<path d="M82.5453 61.81V54.32H116.145V61.81H82.5453Z" fill="#7CFF6B"/>
</svg>
