<svg width="806" height="129" viewBox="0 0 806 129" fill="none" xmlns="http://www.w3.org/2000/svg">
<rect x="1" y="1" width="804" height="126.133" stroke="white" stroke-width="2"/>
<line x1="11.5" y1="112.492" x2="11.5" y2="122.117" stroke="white" stroke-width="3"/>
<line x1="13" y1="120.617" x2="25" y2="120.617" stroke="white" stroke-width="3"/>
<line x1="26" y1="8.11719" x2="10" y2="8.11719" stroke="white" stroke-width="3"/>
<line x1="11.5" y1="8.42194" x2="11.5" y2="15.6407" stroke="white" stroke-width="3"/>
<line x1="795.5" y1="16.2422" x2="795.5" y2="6.61718" stroke="white" stroke-width="3"/>
<line x1="794" y1="8.11719" x2="782" y2="8.11719" stroke="white" stroke-width="3"/>
<line x1="781" y1="120.617" x2="797" y2="120.617" stroke="white" stroke-width="3"/>
<line x1="795.5" y1="120.313" x2="795.5" y2="113.094" stroke="white" stroke-width="3"/>
<path d="M53.3324 85.8907V37.0307H71.8824C76.6424 37.0307 80.2824 38.384 82.8024 41.0907C85.3224 43.7974 86.5824 47.484 86.5824 52.1507C86.5824 56.8174 85.3224 60.504 82.8024 63.2107C80.2824 65.9174 76.6424 67.2707 71.8824 67.2707H62.5024V85.8907H53.3324ZM62.5024 59.7807H69.9924C72.4658 59.7807 74.2391 59.2907 75.3124 58.3107C76.3858 57.284 76.9224 55.674 76.9224 53.4807V50.8207C76.9224 48.6273 76.3858 47.0407 75.3124 46.0607C74.2391 45.034 72.4658 44.5207 69.9924 44.5207H62.5024V59.7807ZM104.475 85.8907H95.3051V37.0307H113.855C118.615 37.0307 122.255 38.384 124.775 41.0907C127.295 43.7974 128.555 47.484 128.555 52.1507C128.555 55.744 127.715 58.7774 126.035 61.2507C124.402 63.6774 122.045 65.2174 118.965 65.8707L129.395 85.8907H119.315L110.005 66.9207H104.475V85.8907ZM111.965 59.7807C114.438 59.7807 116.212 59.2907 117.285 58.3107C118.358 57.284 118.895 55.674 118.895 53.4807V50.8207C118.895 48.6273 118.358 47.0407 117.285 46.0607C116.212 45.034 114.438 44.5207 111.965 44.5207H104.475V59.7807H111.965ZM152.678 86.7307C149.504 86.7307 146.751 86.1707 144.418 85.0507C142.084 83.884 140.148 82.2274 138.608 80.0807C137.114 77.934 135.994 75.2974 135.248 72.1707C134.548 69.044 134.198 65.474 134.198 61.4607C134.198 57.494 134.548 53.9474 135.248 50.8207C135.994 47.6474 137.114 44.9874 138.608 42.8407C140.148 40.694 142.084 39.0607 144.418 37.9407C146.751 36.774 149.504 36.1907 152.678 36.1907C159.024 36.1907 163.691 38.4074 166.678 42.8407C169.664 47.274 171.158 53.4807 171.158 61.4607C171.158 69.4407 169.664 75.6474 166.678 80.0807C163.691 84.514 159.024 86.7307 152.678 86.7307ZM152.678 79.2407C154.311 79.2407 155.688 78.9374 156.808 78.3307C157.928 77.6774 158.814 76.7674 159.468 75.6007C160.168 74.434 160.658 73.0107 160.938 71.3307C161.264 69.604 161.428 67.6907 161.428 65.5907V57.2607C161.428 53.0607 160.774 49.7474 159.468 47.3207C158.208 44.894 155.944 43.6807 152.678 43.6807C149.411 43.6807 147.124 44.894 145.818 47.3207C144.558 49.7474 143.928 53.0607 143.928 57.2607V65.6607C143.928 69.8607 144.558 73.174 145.818 75.6007C147.124 78.0274 149.411 79.2407 152.678 79.2407ZM208.79 37.0307V72.5207C208.79 74.714 208.417 76.6974 207.67 78.4707C206.924 80.1974 205.85 81.6674 204.45 82.8807C203.097 84.094 201.44 85.0507 199.48 85.7507C197.567 86.404 195.42 86.7307 193.04 86.7307C188.42 86.7307 184.78 85.564 182.12 83.2307C179.507 80.8974 177.827 77.794 177.08 73.9207L185.69 72.1007C186.11 74.154 186.857 75.8574 187.93 77.2107C189.05 78.5174 190.754 79.1707 193.04 79.1707C195.14 79.1707 196.75 78.564 197.87 77.3507C198.99 76.0907 199.55 74.1307 199.55 71.4707V44.5907H183.03V37.0307H208.79ZM221.433 85.8907V37.0307H252.303V44.5907H230.603V57.3307H251.533V64.8907H230.603V78.3307H252.303V85.8907H221.433ZM279.856 86.7307C273.462 86.7307 268.726 84.5374 265.646 80.1507C262.612 75.764 261.096 69.534 261.096 61.4607C261.096 53.434 262.612 47.2274 265.646 42.8407C268.726 38.4074 273.462 36.1907 279.856 36.1907C282.282 36.1907 284.406 36.5173 286.226 37.1707C288.092 37.824 289.702 38.734 291.056 39.9007C292.409 41.0207 293.529 42.3974 294.416 44.0307C295.302 45.6174 296.002 47.3674 296.516 49.2807L288.116 51.6607C287.789 50.5407 287.416 49.4907 286.996 48.5107C286.576 47.5307 286.039 46.6907 285.386 45.9907C284.779 45.244 284.009 44.684 283.076 44.3107C282.142 43.8907 281.022 43.6807 279.716 43.6807C276.542 43.6807 274.256 44.894 272.856 47.3207C271.502 49.7474 270.826 53.0607 270.826 57.2607V65.6607C270.826 69.8607 271.502 73.174 272.856 75.6007C274.256 78.0274 276.542 79.2407 279.716 79.2407C281.022 79.2407 282.142 79.054 283.076 78.6807C284.009 78.2607 284.779 77.7007 285.386 77.0007C286.039 76.254 286.576 75.3907 286.996 74.4107C287.416 73.4307 287.789 72.3807 288.116 71.2607L296.516 73.6407C296.002 75.554 295.302 77.3274 294.416 78.9607C293.529 80.5474 292.409 81.924 291.056 83.0907C289.702 84.2107 288.092 85.0974 286.226 85.7507C284.406 86.404 282.282 86.7307 279.856 86.7307ZM325.118 44.5907V85.8907H316.018V44.5907H301.318V37.0307H339.818V44.5907H325.118ZM388.974 85.8907V79.0307H399.964V43.8907H388.974V37.0307H420.054V43.8907H409.064V79.0307H420.054V85.8907H388.974ZM438.716 50.8207H438.016V85.8907H430.176V37.0307H441.446L454.256 72.1007H454.956V37.0307H462.796V85.8907H451.526L438.716 50.8207ZM487.899 86.7307C483.699 86.7307 480.106 86.0074 477.119 84.5607C474.179 83.114 471.776 81.2007 469.909 78.8207L475.439 73.0807C477.259 75.1807 479.219 76.744 481.319 77.7707C483.466 78.7507 485.752 79.2407 488.179 79.2407C490.979 79.2407 493.126 78.6107 494.619 77.3507C496.112 76.0907 496.859 74.2707 496.859 71.8907C496.859 69.9307 496.299 68.4607 495.179 67.4807C494.059 66.454 492.169 65.7307 489.509 65.3107L484.329 64.4707C479.802 63.6774 476.582 62.044 474.669 59.5707C472.756 57.0507 471.799 54.0874 471.799 50.6807C471.799 46.014 473.316 42.444 476.349 39.9707C479.382 37.4507 483.582 36.1907 488.949 36.1907C492.776 36.1907 496.066 36.7974 498.819 38.0107C501.619 39.224 503.859 40.8807 505.539 42.9807L500.149 48.7207C498.842 47.1807 497.279 45.9674 495.459 45.0807C493.639 44.1474 491.492 43.6807 489.019 43.6807C483.699 43.6807 481.039 45.874 481.039 50.2607C481.039 52.1274 481.599 53.5507 482.719 54.5307C483.839 55.5107 485.752 56.234 488.459 56.7007L493.569 57.6107C497.816 58.404 500.966 59.9674 503.019 62.3007C505.072 64.634 506.099 67.6207 506.099 71.2607C506.099 73.5474 505.702 75.6474 504.909 77.5607C504.116 79.4274 502.949 81.0607 501.409 82.4607C499.869 83.814 497.956 84.864 495.669 85.6107C493.429 86.3574 490.839 86.7307 487.899 86.7307ZM534.982 44.5907V85.8907H525.882V44.5907H511.182V37.0307H549.682V44.5907H534.982ZM582.834 85.8907L579.404 73.5007H564.914L561.554 85.8907H552.314L566.034 37.0307H578.774L592.564 85.8907H582.834ZM572.474 46.0607H571.914L566.524 66.0107H577.864L572.474 46.0607ZM600.377 85.8907V37.0307H609.547V78.3307H631.177V85.8907H600.377ZM642.35 85.8907V37.0307H651.52V78.3307H673.15V85.8907H642.35ZM683.132 85.8907V37.0307H714.002V44.5907H692.302V57.3307H713.232V64.8907H692.302V78.3307H714.002V85.8907H683.132ZM734.065 85.8907H724.895V37.0307H743.445C748.205 37.0307 751.845 38.384 754.365 41.0907C756.885 43.7974 758.145 47.484 758.145 52.1507C758.145 55.744 757.305 58.7774 755.625 61.2507C753.992 63.6774 751.635 65.2174 748.555 65.8707L758.985 85.8907H748.905L739.595 66.9207H734.065V85.8907ZM741.555 59.7807C744.028 59.7807 745.802 59.2907 746.875 58.3107C747.948 57.284 748.485 55.674 748.485 53.4807V50.8207C748.485 48.6273 747.948 47.0407 746.875 46.0607C745.802 45.034 744.028 44.5207 741.555 44.5207H734.065V59.7807H741.555Z" fill="white"/>
<path d="M345.741 98.8407V91.3507H379.341V98.8407H345.741Z" fill="#7CFF6B"/>
</svg>
